<?xml version="1.0" encoding="UTF-8"?>
<svg xmlns="http://www.w3.org/2000/svg" viewBox="0 0 159.29 129.12">
  <defs>
    <style>
      .cls-P {
        fill: hsl(195, 6%, 12%);
      }

      .cls-M {
        fill: #000000;
      }

      .cls-BG {
        fill: hsl(38, 41%, 71%);
      }
    </style>
  </defs>
  <g id="BG">
    <rect class="cls-BG" x=".44" width="158.23" height="129.12"/>
  </g>
  <g id="M">
    <polygon class="cls-M" points="47.21 56.36 33.14 7.69 9.86 7.69 9.86 121.44 27.44 121.44 27.44 82.84 26.43 33.94 42.29 86.36 52.05 86.36 69.55 32.06 68.46 82.84 68.46 121.44 86.11 121.44 86.11 7.69 62.75 7.69 47.21 56.36"/>
  </g>
  <g id="P">
    <path class="cls-P" d="M146.37,28.55c-1.93-4.38-4.64-8.1-8.12-11.17-3.49-3.07-7.64-5.44-12.46-7.11-4.82-1.67-10.09-2.53-15.82-2.58h-18.14v15.31h18.14c3.18.05,6.03.57,8.55,1.56,2.53.99,4.67,2.4,6.45,4.22,1.77,1.82,3.11,3.97,4.02,6.45.91,2.47,1.37,5.22,1.37,8.24,0,2.76-.46,5.31-1.37,7.66-.91,2.34-2.25,4.38-4.02,6.09-1.77,1.72-3.92,3.06-6.45,4.02-2.53.96-5.38,1.47-8.55,1.52h-18.14v15.31h18.14c5.73,0,11-.83,15.82-2.5,4.82-1.67,8.97-4.04,12.46-7.11,3.49-3.02,6.2-6.65,8.12-10.9,1.93-4.24,2.89-9,2.89-14.26s-.96-10.39-2.89-14.77Z"/>
  </g>
</svg>